<svg
  xmlns="http://www.w3.org/2000/svg"
  xmlns:xlink="http://www.w3.org/1999/xlink"
  version="1.1"
  id="Layer_1"
  viewBox="0 0 405.544 405.544"
  xml:space="preserve"
  fill="rgb(255, 255, 255)"
  stroke="rgb(255, 255, 255)"
  >          
  <g>
    <g>
      <path
        style="fill: rgb(51, 51, 51)"
        d="M405.454,221.189c-3.078-30.801-17.431-59.287-40.416-80.209 c-23.143-21.066-53.136-32.668-84.454-32.668c-2.366,0-4.723,0.074-7.072,0.206c-26.525-44.649-74.654-72.186-126.77-72.186 c-36.778,0-72,13.625-99.179,38.364c-26.993,24.571-43.85,58.021-47.464,94.185c-0.571,5.674,1.302,11.362,5.14,15.605 c3.866,4.275,9.389,6.726,15.153,6.726h70.44v19.95c0,12.837-0.731,25.873-2.172,38.735c-1.448,12.77-3.645,25.641-6.529,38.252 c-4.525,19.778,0.133,40.222,12.781,56.092c12.648,15.87,31.54,24.971,51.83,24.971c36.558,0,66.3-29.675,66.3-66.15 c0-4.995-0.568-10.012-1.689-14.914c-3.527-15.403-5.991-31.123-7.364-46.839h34.309v12.225c0,9.187-0.521,18.473-1.55,27.596 c-1.034,9.124-2.597,18.293-4.646,27.251c-3.398,14.841,0.096,30.183,9.585,42.091c9.491,11.91,23.668,18.741,38.896,18.741 c27.434,0,49.752-22.27,49.752-49.643c0-3.747-0.428-7.512-1.271-11.189c-4.11-17.951-6.195-36.404-6.195-54.847v-12.225h64.299 c5.188,0,10.162-2.207,13.644-6.054C404.274,231.431,405.966,226.305,405.454,221.189z M16.365,174.424 c-0.587-0.649-1.542-2.037-1.339-4.046c3.246-32.476,18.387-62.517,42.636-84.59c24.41-22.219,56.046-34.456,89.082-34.456 c44.568,0,85.881,22.434,110.304,59.198c-22.588,4.296-43.658,14.739-60.917,30.45c-11.161,10.16-20.28,22.106-27.067,35.232 H20.393C18.296,176.212,16.969,175.092,16.365,174.424z M196.732,291.494c0.87,3.804,1.311,7.696,1.311,11.568 c0,28.204-23.013,51.15-51.3,51.15c-15.697,0-30.313-7.042-40.1-19.321c-9.786-12.278-13.39-28.095-9.889-43.398 c3.008-13.156,5.299-26.582,6.812-39.917c1.503-13.425,2.266-27.022,2.266-40.415v-19.95h56.678 c-3.463,9.602-5.766,19.659-6.797,29.978c-0.511,5.115,1.18,10.242,4.64,14.064c3.482,3.848,8.456,6.054,13.644,6.054h14.929 C190.336,258.146,192.955,274.995,196.732,291.494z M314.445,311.731c0.592,2.581,0.892,5.218,0.892,7.838 c0,19.102-15.59,34.643-34.752,34.643c-10.635,0-20.537-4.771-27.165-13.089c-6.628-8.317-9.068-19.031-6.694-29.397 c2.173-9.504,3.831-19.23,4.928-28.912c1.092-9.683,1.645-19.535,1.645-29.281v-12.225h54.572v12.225 C307.871,273.102,310.083,292.681,314.445,311.731z M389.693,225.188c-0.378,0.418-1.209,1.12-2.522,1.12H173.999 c-1.313,0-2.144-0.702-2.522-1.12c-0.365-0.404-0.959-1.266-0.835-2.508c2.708-27.108,15.347-52.184,35.587-70.608 c20.375-18.547,46.782-28.761,74.357-28.761s53.982,10.214,74.357,28.761c20.24,18.424,32.878,43.5,35.587,70.608 C390.653,223.923,390.058,224.785,389.693,225.188z"
      ></path>
    </g>
  </g>
</svg>